<svg xmlns="http://www.w3.org/2000/svg" viewBox="0 0 700 700"><circle cx="350" cy="350" r="300" fill="none" stroke="#9AA4B2" stroke-width="9"/><path d="M113.2,249.8L116.5,259.3L126.5,259.5L118.5,265.5L121.4,275.1L113.2,269.4L105.0,275.1L107.9,265.5L99.9,259.5L109.9,259.3Z" fill="#9AA4B2"/><path d="M135.5,203.7L138.8,213.2L148.8,213.4L140.8,219.4L143.7,229.0L135.5,223.3L127.3,229.0L130.2,219.4L122.2,213.4L132.2,213.2Z" fill="#9AA4B2"/><path d="M166.7,163.1L170.0,172.5L180.0,172.7L172.0,178.8L174.9,188.4L166.7,182.7L158.5,188.4L161.4,178.8L153.4,172.7L163.4,172.5Z" fill="#9AA4B2"/><path d="M205.5,129.6L208.8,139.0L218.8,139.2L210.8,145.3L213.7,154.9L205.5,149.2L197.2,154.9L200.1,145.3L192.1,139.2L202.2,139.0Z" fill="#9AA4B2"/><path d="M250.2,104.6L253.5,114.1L263.5,114.3L255.5,120.3L258.4,129.9L250.2,124.2L242.0,129.9L244.9,120.3L236.9,114.3L246.9,114.1Z" fill="#9AA4B2"/><path d="M299.0,89.2L302.3,98.7L312.4,98.9L304.4,104.9L307.3,114.5L299.0,108.8L290.8,114.5L293.7,104.9L285.7,98.9L295.7,98.7Z" fill="#9AA4B2"/><path d="M350.0,84.0L353.3,93.5L363.3,93.7L355.3,99.7L358.2,109.3L350.0,103.6L341.8,109.3L344.7,99.7L336.7,93.7L346.7,93.5Z" fill="#9AA4B2"/><path d="M401.0,89.2L404.3,98.7L414.3,98.9L406.3,104.9L409.2,114.5L401.0,108.8L392.7,114.5L395.6,104.9L387.6,98.9L397.7,98.7Z" fill="#9AA4B2"/><path d="M449.8,104.6L453.1,114.1L463.1,114.3L455.1,120.3L458.0,129.9L449.8,124.2L441.6,129.9L444.5,120.3L436.5,114.3L446.5,114.1Z" fill="#9AA4B2"/><path d="M494.5,129.6L497.8,139.0L507.9,139.2L499.9,145.3L502.8,154.9L494.5,149.2L486.3,154.9L489.2,145.3L481.2,139.2L491.2,139.0Z" fill="#9AA4B2"/><path d="M533.3,163.1L536.6,172.5L546.6,172.7L538.6,178.8L541.5,188.4L533.3,182.7L525.1,188.4L528.0,178.8L520.0,172.7L530.0,172.5Z" fill="#9AA4B2"/><path d="M564.5,203.7L567.8,213.2L577.8,213.4L569.8,219.4L572.7,229.0L564.5,223.3L556.3,229.0L559.2,219.4L551.2,213.4L561.2,213.2Z" fill="#9AA4B2"/><path d="M586.8,249.8L590.1,259.3L600.1,259.5L592.1,265.5L595.0,275.1L586.8,269.4L578.6,275.1L581.5,265.5L573.5,259.5L583.5,259.3Z" fill="#9AA4B2"/><g transform="translate(94,96)">
    <rect x="150" y="180" width="66" height="212" rx="5" fill="#1F4FE6"/>
    <rect x="346" y="150" width="66" height="242" rx="5" fill="#1F4FE6"/>
    <rect x="166" y="160" width="34" height="22" rx="3" fill="#1F4FE6"/>
    <rect x="362" y="130" width="34" height="22" rx="3" fill="#1F4FE6"/><polygon points="216,180 282,180 412,392 346,392" fill="#1F4FE6"/>
    <rect x="208" y="180" width="8" height="212" fill="#0E1A2E" opacity="0.45"/>
    <rect x="404" y="150" width="8" height="242" fill="#0E1A2E" opacity="0.45"/><rect x="160" y="232" width="40" height="7" rx="3.5" fill="#FFFFFF" opacity="0.9"/><rect x="160" y="296" width="40" height="7" rx="3.5" fill="#FFFFFF" opacity="0.9"/><rect x="160" y="352" width="40" height="7" rx="3.5" fill="#FFFFFF" opacity="0.9"/><rect x="352" y="190" width="40" height="7" rx="3.5" fill="#FFFFFF" opacity="0.9"/><rect x="352" y="248" width="40" height="7" rx="3.5" fill="#FFFFFF" opacity="0.9"/><rect x="352" y="306" width="40" height="7" rx="3.5" fill="#FFFFFF" opacity="0.9"/><path d="M379.0,72.0L385.1,89.6L403.7,90.0L388.9,101.2L394.3,119.0L379.0,108.4L363.7,119.0L369.1,101.2L354.3,90.0L372.9,89.6Z" fill="#9AA4B2"/></g></svg>